<?xml version="1.0" encoding="utf-8"?>
<!-- Generator: Adobe Illustrator 24.3.0, SVG Export Plug-In . SVG Version: 6.00 Build 0)  -->
<svg version="1.1" id="Layer_1" xmlns="http://www.w3.org/2000/svg" xmlns:xlink="http://www.w3.org/1999/xlink" x="0px" y="0px"
	 viewBox="0 0 1080 1080" style="enable-background:new 0 0 1080 1080;" xml:space="preserve">
<style type="text/css">
	.st0{display:none;fill:#FFFFFF;}
	.st1{display:none;fill:#0F87A2;}
	.st2{fill:url(#SVGID_1_);}
	.st3{fill:url(#SVGID_2_);}
	.st4{fill:url(#SVGID_3_);}
	.st5{fill:#16B0D2;}
	.st6{fill:url(#SVGID_4_);}
	.st7{fill:url(#SVGID_5_);}
	.st8{fill:url(#SVGID_6_);}
	.st9{fill:url(#SVGID_7_);}
	.st10{fill:url(#SVGID_8_);}
	.st11{fill:url(#SVGID_9_);}
	.st12{fill:url(#SVGID_10_);}
	.st13{fill:url(#SVGID_11_);}
	.st14{display:none;fill:url(#SVGID_12_);stroke:#FFFFFF;stroke-width:2;stroke-miterlimit:10;}
	.st15{fill:url(#SVGID_13_);}
	.st16{fill:none;stroke:#FFFFFF;stroke-width:0.25;stroke-miterlimit:10;}
	.st17{display:none;fill:none;stroke:#FFFFFF;stroke-width:4;stroke-miterlimit:10;}
	.st18{fill:#139AB9;}
</style>
<path class="st0" d="M880.3,220.7c-2.8-2.6-5.7-5.2-8.5-7.7C787.4,138.6,676.2,93.4,554.1,93.4c-108,0-207.5,35.4-287.4,95
	c-3.9,2.8-7.7,5.8-11.5,8.8C146.9,283.1,77.8,414.6,77.8,562c0,258.7,213.2,468.5,476.1,468.5S1030,820.7,1030,561.9
	C1030.2,427.4,972.6,306.2,880.3,220.7z"/>
<path class="st1" d="M287,323.8"/>
<linearGradient id="SVGID_1_" gradientUnits="userSpaceOnUse" x1="333.3483" y1="-579.5134" x2="446.3828" y2="-291.0223" gradientTransform="matrix(1 0 0 1 0 1014)">
	<stop  offset="2.024560e-07" style="stop-color:#1296B4"/>
	<stop  offset="1" style="stop-color:#17B5D7"/>
</linearGradient>
<path class="st2" d="M392,822.3L286.7,491.2c-1.1-3.9-4.3-13.8-13.9-21.3c-16.1-12.6-35.7-7.1-37.8-6.5v-59.3h196.2v62.2
	c0,0-51.7-10.5-49.8,7.7L458,718L392,822.3z"/>
<linearGradient id="SVGID_2_" gradientUnits="userSpaceOnUse" x1="500.2293" y1="-128.0176" x2="481.4988" y2="-153.3588" gradientTransform="matrix(1 0 0 1 0 1014)">
	<stop  offset="2.024560e-07" style="stop-color:#1296B4"/>
	<stop  offset="1" style="stop-color:#17B5D7"/>
</linearGradient>
<polygon class="st3" points="509.1,826.7 445.7,892.9 512.9,892.9 512.9,822.3 "/>
<linearGradient id="SVGID_3_" gradientUnits="userSpaceOnUse" x1="546.3369" y1="-645.6568" x2="604.1082" y2="-418.182" gradientTransform="matrix(1 0 0 1 0 1014)">
	<stop  offset="2.024560e-07" style="stop-color:#1296B4"/>
	<stop  offset="1" style="stop-color:#17B5D7"/>
</linearGradient>
<path class="st4" d="M671,467.5v-63.4H457.2v63.1l27.2,0.4c26.2-7.2,48.2,92.1,48.2,92.1l-29.3,94l117.4-167.3
	c-3.4-5.7-6.8-11.3-10.2-17C630.6,468.8,650.8,468.2,671,467.5z"/>
<path class="st5" d="M585.5,572.9L439.3,790.4l3.8,5.5l-30.5,46.9c-2.7,27.3-12.5,18-12.5,18l-28.9,61.6l23.4-24.5
	c69.8-26.2,52.9-49.1,52.9-49.1c0-38.7,20.2-38.7,20.2-38.7c24.5,14.2,25.1,2.2,25.1,2.2l143.9-194.8
	C625.3,614.2,585.5,572.9,585.5,572.9z"/>
<linearGradient id="SVGID_4_" gradientUnits="userSpaceOnUse" x1="791.0827" y1="-616.5942" x2="635.0065" y2="-137.2175" gradientTransform="matrix(1 0 0 1 0 1014)">
	<stop  offset="2.024560e-07" style="stop-color:#1296B4"/>
	<stop  offset="1" style="stop-color:#17B5D7"/>
</linearGradient>
<path class="st6" d="M878.9,456.3H788l-99.4,288L650.8,629l-4.1,3.1l-67.4,87.3L637,890.2h76.3l152.5-423.3
	C865.9,466.9,872.1,456.9,878.9,456.3z"/>
<g>
	
		<linearGradient id="SVGID_5_" gradientUnits="userSpaceOnUse" x1="658.1412" y1="-37.579" x2="413.0347" y2="-48.8129" gradientTransform="matrix(1 0 0 1 0 1014)">
		<stop  offset="0.2967" style="stop-color:#1296B4"/>
		<stop  offset="0.6611" style="stop-color:#17B5D7"/>
	</linearGradient>
	<path class="st7" d="M400.6,941.3l11,40.7l13.2-40.7h8.6l13.2,40.7l11-40.7h8.7l-15.4,50h-8.3l-13.5-41.4l-13.5,41.3h-8.3l-15.3-50
		L400.6,941.3L400.6,941.3z"/>
	
		<linearGradient id="SVGID_6_" gradientUnits="userSpaceOnUse" x1="656.8492" y1="-40.0213" x2="413.6015" y2="-51.1701" gradientTransform="matrix(1 0 0 1 0 1014)">
		<stop  offset="2.024560e-07" style="stop-color:#1296B4"/>
		<stop  offset="1" style="stop-color:#17B5D7"/>
	</linearGradient>
	<path class="st8" d="M474.7,941.3h27.1c4.5,0,8.1,0.6,11,1.7c5.5,2.1,8.2,6.1,8.2,11.8c0,3-0.7,5.4-2.2,7.4
		c-1.4,1.9-3.5,3.4-6.1,4.6c2.3,0.8,4,1.8,5.2,3.1s1.8,3.4,1.9,6.3l0.3,6.7c0.1,1.9,0.3,3.3,0.6,4.3c0.5,1.6,1.3,2.6,2.5,3.1v1.1
		h-9.7c-0.3-0.4-0.5-1-0.6-1.7c-0.2-0.7-0.3-2-0.4-3.9l-0.5-8.3c-0.2-3.3-1.6-5.5-4.3-6.6c-1.5-0.6-3.9-0.9-7.1-0.9h-18v21.2h-7.9
		V941.3z M500.9,964.2c3.7,0,6.7-0.6,8.8-1.9c2.2-1.3,3.2-3.6,3.2-6.9c0-3.6-1.5-6-4.5-7.3c-1.6-0.7-3.8-1-6.5-1h-19.3v17.1H500.9z"
		/>
	
		<linearGradient id="SVGID_7_" gradientUnits="userSpaceOnUse" x1="653.798" y1="-42.3846" x2="417.6127" y2="-53.2097" gradientTransform="matrix(1 0 0 1 0 1014)">
		<stop  offset="2.024560e-07" style="stop-color:#1296B4"/>
		<stop  offset="1" style="stop-color:#17B5D7"/>
	</linearGradient>
	<path class="st9" d="M534.4,941.3h8v50h-8V941.3z"/>
	
		<linearGradient id="SVGID_8_" gradientUnits="userSpaceOnUse" x1="657.6368" y1="-43.7206" x2="414.389" y2="-54.8694" gradientTransform="matrix(1 0 0 1 0 1014)">
		<stop  offset="2.024560e-07" style="stop-color:#1296B4"/>
		<stop  offset="1" style="stop-color:#17B5D7"/>
	</linearGradient>
	<path class="st10" d="M556.2,941.3h27.1c4.5,0,8.1,0.6,11,1.7c5.5,2.1,8.2,6.1,8.2,11.8c0,3-0.7,5.4-2.2,7.4
		c-1.4,1.9-3.5,3.4-6.1,4.6c2.3,0.8,4,1.8,5.2,3.1s1.8,3.4,1.9,6.3l0.3,6.7c0.1,1.9,0.3,3.3,0.6,4.3c0.5,1.6,1.3,2.6,2.5,3.1v1.1
		H595c-0.3-0.4-0.5-1-0.6-1.7c-0.2-0.7-0.3-2-0.4-3.9l-0.5-8.3c-0.2-3.3-1.6-5.5-4.3-6.6c-1.5-0.6-3.9-0.9-7.1-0.9h-18v21.2h-7.9
		V941.3z M582.4,964.2c3.7,0,6.7-0.6,8.8-1.9c2.2-1.3,3.2-3.6,3.2-6.9c0-3.6-1.5-6-4.5-7.3c-1.6-0.7-3.8-1-6.5-1h-19.3v17.1H582.4z"
		/>
	
		<linearGradient id="SVGID_9_" gradientUnits="userSpaceOnUse" x1="658.2112" y1="-46.779" x2="414.9899" y2="-57.9266" gradientTransform="matrix(1 0 0 1 0 1014)">
		<stop  offset="2.024560e-07" style="stop-color:#1296B4"/>
		<stop  offset="1" style="stop-color:#17B5D7"/>
	</linearGradient>
	<path class="st11" d="M614.1,941.3h7.7v24.4l28.5-24.4h10.9l-24.3,20.1l25,29.8h-10.3l-20.5-25l-9.4,7.7v17.3H614L614.1,941.3
		L614.1,941.3z"/>
</g>
<path class="st5" d="M878.8,241.6c-0.9,0-6.9,5.8-9.7,8c1.2,1.2,2.3,2.3,3.5,3.5C874.8,248.8,879.8,241.6,878.8,241.6z"/>
<linearGradient id="SVGID_10_" gradientUnits="userSpaceOnUse" x1="976.5612" y1="-796.7013" x2="765.7054" y2="31.6604" gradientTransform="matrix(1 0 0 1 0 1014)">
	<stop  offset="2.024560e-07" style="stop-color:#1296B4"/>
	<stop  offset="1" style="stop-color:#17B5D7"/>
</linearGradient>
<path class="st12" d="M884.4,260.4c-4,7.6-14.5,21.7-23.6,35.9c25.2,27.9,58.1,71.3,82.1,140.9c10.8,31.5,52,157.4-7.4,293.1
	c-73.4,168-241.8,216.3-264.7,222.4l0,0c187.8-50.8,325.7-200.5,325.7-399.5C996.5,437.6,960.1,338.1,884.4,260.4z"/>
<linearGradient id="SVGID_11_" gradientUnits="userSpaceOnUse" x1="549.7752" y1="-912.9266" x2="336.8034" y2="-76.2517" gradientTransform="matrix(1 0 0 1 0 1014)">
	<stop  offset="2.024560e-07" style="stop-color:#1296B4"/>
	<stop  offset="1" style="stop-color:#17B5D7"/>
</linearGradient>
<path class="st13" d="M547.6,116.3c-245.9,0-445.2,194-445.2,433.3c0,181,116.3,330.8,278.1,395.7l0,0
	c-39.6-16.8-109.7-53.2-166.1-127.2c-85.1-111.6-108.7-269-53.1-406.4c63.2-156,217.8-260.1,382.3-261.1c160.2-1,265.6,94,291,118.3
	c11.8-11.3,19.7-22.1,26.2-27.2C779.9,160.5,673,116.3,547.6,116.3z"/>
<path class="st5" d="M869.1,249.6c-6.5,5.1-17.4,15.1-29.2,26.5c3.9,3.9,7.8,7.8,11.5,11.9c9.1-14.2,17.2-27.2,21.1-34.8
	C871.4,252,870.2,250.8,869.1,249.6z"/>
<path class="st5" d="M590.9,567.3C622.5,518.4,803.2,303,878,237c3.3-3,8.2,1.2,5.8,5c-45.7,72.9-177.1,297.8-241.7,371.6
	c-1.4,1.6-3.9,1.8-5.5,0.3l-45.3-41.3C589.8,571.2,589.8,569,590.9,567.3z"/>
<linearGradient id="SVGID_12_" gradientUnits="userSpaceOnUse" x1="769.5088" y1="-581.293" x2="893.5461" y2="-587.4183" gradientTransform="matrix(1 0 0 1 0 1014)">
	<stop  offset="2.024560e-07" style="stop-color:#1296B4"/>
	<stop  offset="0.8387" style="stop-color:#16B0D1"/>
	<stop  offset="1" style="stop-color:#17B5D7"/>
</linearGradient>
<polygon class="st14" points="857.2,456.3 890.4,456.3 890.4,404.1 788,404.1 749.2,404.1 749.2,454.8 749.2,455.3 749.2,456.3 
	781.6,456.3 "/>
<linearGradient id="SVGID_13_" gradientUnits="userSpaceOnUse" x1="1070.2694" y1="-240.775" x2="1070.2694" y2="-240.775" gradientTransform="matrix(1 0 0 1 0 1014)">
	<stop  offset="2.024560e-07" style="stop-color:#1296B4"/>
	<stop  offset="1" style="stop-color:#17B5D7"/>
</linearGradient>
<path class="st15" d="M1070.3,773.2"/>
<path class="st16" d="M890.4,245.9c0,0,2.8,6.4,9.2,5.3"/>
<path class="st17" d="M871.3,242.3c0,0,2.6,6.5,10.7,7.2"/>
<rect x="743.4" y="404.1" class="st18" width="163.6" height="63.9"/>
</svg>
